<svg height="512" viewBox="0 0 64 64" width="512" xmlns="http://www.w3.org/2000/svg"><g id="Fill_Outline" data-name="Fill Outline"><g id="Stroke_copy" data-name="Stroke copy"><g><g><path d="m52 22a3 3 0 0 0 -3-3c-.047 0-.091.012-.137.014a3.994 3.994 0 0 0 -1.053-1.858 3.948 3.948 0 0 0 .19-1.156 4 4 0 0 0 -5.527-3.695 2.988 2.988 0 0 0 -5.3.713c-.06 0-.117-.018-.178-.018a3.99 3.99 0 0 0 -3.29 1.732 2.993 2.993 0 0 0 -2.705-1.732c-.061 0-.118.014-.178.018a2.993 2.993 0 0 0 -5.822.982c0 .047.012.091.014.137a3.98 3.98 0 0 0 -1.729.941 3 3 0 1 0 -.917 4.578 3.971 3.971 0 0 0 6.688.9 3.978 3.978 0 0 0 7.7.773 3.936 3.936 0 0 0 5.144 1.171 3.994 3.994 0 0 0 1.444 1.133 2.957 2.957 0 0 0 1.056 3.9 2.97 2.97 0 0 0 -.4 1.467 3 3 0 1 0 4.6-2.53 2.97 2.97 0 0 0 .4-1.47 3 3 0 0 0 3-3z" fill="#656b76"/><path d="m49 28a3 3 0 0 1 -3-3 2.97 2.97 0 0 1 .4-1.47 2.957 2.957 0 0 1 -1.056-3.9 3.994 3.994 0 0 1 -1.444-1.13 3.936 3.936 0 0 1 -5.143-1.173 3.978 3.978 0 0 1 -7.7-.773 3.971 3.971 0 0 1 -6.688-.9 2.966 2.966 0 0 1 -4.148-1.54 2.991 2.991 0 1 0 2.148 5.54 3.971 3.971 0 0 0 6.688.9 3.978 3.978 0 0 0 7.7.773 3.936 3.936 0 0 0 5.143 1.173 3.994 3.994 0 0 0 1.444 1.133 2.957 2.957 0 0 0 1.056 3.9 2.97 2.97 0 0 0 -.4 1.467 3 3 0 0 0 6 0 2.911 2.911 0 0 0 -.24-1.109 2.981 2.981 0 0 1 -.76.109z" fill="#464a51"/><path d="m61 61h-26l.429-1.073a77.889 77.889 0 0 0 5.571-28.927h14a77.889 77.889 0 0 0 5.571 28.927z" fill="#93999a"/><path d="m58.17 52.989a7.948 7.948 0 0 1 -7.57-6.282 77.8 77.8 0 0 1 -1.6-15.707h-8a77.889 77.889 0 0 1 -5.571 28.927l-.429 1.073h26l-.429-1.073q-1.371-3.415-2.401-6.938z" fill="#656b76"/><path d="m41 25h14v6h-14z" fill="#fcbc04"/><path d="m41 25h8v6h-8z" fill="#e59730"/><path d="m43 14a3 3 0 0 0 -3-3c-.047 0-.091.012-.137.014a3.994 3.994 0 0 0 -1.053-1.858 3.948 3.948 0 0 0 .19-1.156 4 4 0 0 0 -5.527-3.695 2.988 2.988 0 0 0 -5.295.713c-.06-.003-.117-.018-.178-.018a3.99 3.99 0 0 0 -3.29 1.732 2.993 2.993 0 0 0 -2.71-1.732c-.061 0-.118.014-.178.018a2.993 2.993 0 0 0 -5.822.982c0 .047.012.091.014.137a3.98 3.98 0 0 0 -1.729.941 3 3 0 1 0 -.917 4.578 3.971 3.971 0 0 0 6.688.9 3.978 3.978 0 0 0 7.7.773 3.936 3.936 0 0 0 5.144 1.171 3.994 3.994 0 0 0 1.444 1.133 2.957 2.957 0 0 0 1.056 3.9 2.97 2.97 0 0 0 -.4 1.467 3 3 0 1 0 4.6-2.53 2.97 2.97 0 0 0 .4-1.47 3 3 0 0 0 3-3z" fill="#d0d8da"/><path d="m40 20a3 3 0 0 1 -3-3 2.97 2.97 0 0 1 .4-1.47 2.957 2.957 0 0 1 -1.056-3.9 3.994 3.994 0 0 1 -1.444-1.13 3.936 3.936 0 0 1 -5.143-1.173 3.978 3.978 0 0 1 -7.7-.773 3.971 3.971 0 0 1 -6.688-.9 2.966 2.966 0 0 1 -4.148-1.54 2.991 2.991 0 1 0 2.148 5.54 3.971 3.971 0 0 0 6.688.9 3.978 3.978 0 0 0 7.7.773 3.936 3.936 0 0 0 5.143 1.173 3.994 3.994 0 0 0 1.444 1.133 2.957 2.957 0 0 0 1.056 3.9 2.97 2.97 0 0 0 -.4 1.467 3 3 0 0 0 6 0 2.911 2.911 0 0 0 -.24-1.109 2.981 2.981 0 0 1 -.76.109z" fill="#93999a"/><path d="m52 61h-32l.94-2.821a98.578 98.578 0 0 0 5.06-31.179h20a98.578 98.578 0 0 0 5.06 31.179z" fill="#d0d8da"/><path d="m26 20h20v7h-20z" fill="#f9e109"/><path d="m50.071 55h-11.971a7.977 7.977 0 0 1 -7.867-9.436 98.364 98.364 0 0 0 1.767-18.564h-6a98.578 98.578 0 0 1 -5.06 31.179l-.94 2.821h32l-.94-2.821c-.352-1.054-.674-2.115-.989-3.179z" fill="#93999a"/><path d="m26 20h6v7h-6z" fill="#fcbc04"/></g><g><circle cx="20" cy="44" fill="#f9e109" r="17"/><path d="m28 55a16.978 16.978 0 0 1 -13.737-26.986 16.989 16.989 0 1 0 19.474 25.972 16.919 16.919 0 0 1 -5.737 1.014z" fill="#fcbc04"/><g fill="#656b76"><circle cx="20" cy="44" r="2"/><path d="m17 38.808-3.5-6.058a12.984 12.984 0 0 0 -6.5 11.25h7a5.991 5.991 0 0 1 3-5.192z"/><path d="m20 50a5.965 5.965 0 0 1 -3-.808l-3.5 6.058a12.928 12.928 0 0 0 12.99 0l-3.49-6.058a5.965 5.965 0 0 1 -3 .808z"/><path d="m26.5 32.75-3.5 6.058a5.991 5.991 0 0 1 3 5.192h7a12.984 12.984 0 0 0 -6.5-11.25z"/></g><path d="m12.09 44h-5.09a12.99 12.99 0 0 1 4.41-9.75 17.169 17.169 0 0 0 -.41 3.75 16.854 16.854 0 0 0 1.09 6z" fill="#464a51"/><path d="m26.49 55.25a12.909 12.909 0 0 1 -12.98 0l2.82-4.9a16.809 16.809 0 0 0 9.97 4.56z" fill="#464a51"/></g></g></g><g id="Stroke_Cut_copy_2" data-name="Stroke Cut copy 2"><g fill="#323232"><path d="m61.929 60.629-.429-1.073a76.552 76.552 0 0 1 -5.5-28.556v-6a1 1 0 0 0 -1-1h-2.556a3.959 3.959 0 0 0 .556-2 4.007 4.007 0 0 0 -3.411-3.957 4.939 4.939 0 0 0 -.681-1.155 4.458 4.458 0 0 0 .092-.888 4.969 4.969 0 0 0 -1.961-3.971 1 1 0 0 0 -1.217 1.588 2.905 2.905 0 0 1 1.032 3.247 1 1 0 0 0 .252 1 2.987 2.987 0 0 1 .789 1.394.987.987 0 0 0 1.011.751c.054 0 .107-.009.094-.013a2 2 0 0 1 0 4h-2v-3.996a1 1 0 0 0 -1-1h-4.576a3.993 3.993 0 0 0 -.608-.823c.03-.092.055-.184.078-.278a4 4 0 0 0 -.3-7.856 4.939 4.939 0 0 0 -.681-1.155 4.458 4.458 0 0 0 .087-.888 5.006 5.006 0 0 0 -5-5 4.927 4.927 0 0 0 -1.2.147 3.987 3.987 0 0 0 -6.568 1.542 1 1 0 0 0 1.889.658 1.987 1.987 0 0 1 3.525-.476 1 1 0 0 0 1.207.358 3 3 0 0 1 4.147 2.771 2.962 2.962 0 0 1 -.146.864 1 1 0 0 0 .252 1 2.987 2.987 0 0 1 .789 1.394.984.984 0 0 0 1.011.751c.054 0 .107-.009.094-.013a2 2 0 0 1 0 4 1 1 0 0 0 -1 1 1.96 1.96 0 0 1 -.27.976 1 1 0 0 0 .032 1.028h-2.524a.985.985 0 0 0 -.3-.315 1.989 1.989 0 0 1 -.938-1.685 1.962 1.962 0 0 1 .233-.908 1 1 0 0 0 .057-.786.994.994 0 0 0 -.529-.583 2.974 2.974 0 0 1 -1.082-.851 1 1 0 0 0 -1.256-.251 2.954 2.954 0 0 1 -3.855-.879 1 1 0 0 0 -1.755.251 2.978 2.978 0 0 1 -5.767-.578 1 1 0 0 0 -1.758-.5 2.97 2.97 0 0 1 -5.01-.671 1 1 0 0 0 -1.368-.474 2 2 0 1 1 .611-3.045 1 1 0 0 0 1.445.088 2.991 2.991 0 0 1 1.3-.7 1 1 0 0 0 .747-1.013.308.308 0 0 0 -.013-.1 1.993 1.993 0 0 1 3.878-.653.987.987 0 0 0 1.01.669c.024 0 .088-.013.112-.016a1.981 1.981 0 0 1 1.8 1.157 1 1 0 1 0 1.81-.851 4.021 4.021 0 0 0 -3.148-2.278 3.991 3.991 0 0 0 -7.424 1.385 5.078 5.078 0 0 0 -.694.362 3.957 3.957 0 0 0 -2.344-.775 4 4 0 0 0 0 8 3.84 3.84 0 0 0 .928-.114 5 5 0 0 0 4.072 2.114 4.883 4.883 0 0 0 .569-.039 3.953 3.953 0 0 0 -.569 2.039 4 4 0 0 0 4 4 3.84 3.84 0 0 0 .928-.114 5.011 5.011 0 0 0 3.072 2v3.814a18.013 18.013 0 0 0 -23 17.3 17.868 17.868 0 0 0 1.461 7.1 1 1 0 0 0 .919.605.989.989 0 0 0 .4-.082 1 1 0 0 0 .52-1.309 15.988 15.988 0 0 1 27.5-15.878 1 1 0 0 0 1.6-1.2 17.98 17.98 0 0 0 -7.4-5.826v-6.41h18v5h-13a1 1 0 0 0 0 2h13.005a99.367 99.367 0 0 0 5.106 30.5l.5 1.505h-18.611a1 1 0 0 0 0 2h20a1 1 0 0 0 .948-1.316l-.94-2.822a97.406 97.406 0 0 1 -5.008-30.867v-1h7v4h-3.918a1 1 0 1 0 0 2h3.924a78.5 78.5 0 0 0 5.518 28h-3.524a1 1 0 0 0 0 2h5a1 1 0 0 0 .929-1.371zm-35.929-41.629a1 1 0 0 0 -1 1v.818a3.01 3.01 0 0 1 -1.722-1.577 1 1 0 0 0 -1.368-.474 1.984 1.984 0 1 1 -1.721-3.573 4.944 4.944 0 0 0 7.8-.21 4.979 4.979 0 0 0 4.669.719 5.264 5.264 0 0 0 .453.367 3.8 3.8 0 0 0 -.111.93 3.947 3.947 0 0 0 .558 2z"/><path d="m38 44a17.868 17.868 0 0 0 -1.461-7.1 1 1 0 0 0 -1.838.79 15.988 15.988 0 0 1 -27.501 15.874 1 1 0 0 0 -1.6 1.2 17.984 17.984 0 0 0 32.4-10.764z"/><path d="m17 44a3 3 0 1 0 3-3 3 3 0 0 0 -3 3zm4 0a1 1 0 1 1 -1-1 1 1 0 0 1 1 1z"/><path d="m14.371 32.25a1 1 0 0 0 -1.371-.365 14.046 14.046 0 0 0 -7 12.115 1 1 0 0 0 1 1h7a1 1 0 0 0 1-1 5.018 5.018 0 0 1 2.5-4.327 1 1 0 0 0 .365-1.365zm-1.299 10.75h-5.03a12.057 12.057 0 0 1 5.118-8.847l2.512 4.352a7.043 7.043 0 0 0 -2.6 4.495z"/><path d="m23.257 48.227a1 1 0 0 0 -.76.1 5.049 5.049 0 0 1 -4.994 0 1 1 0 0 0 -1.367.365l-3.5 6.058a1 1 0 0 0 .364 1.365 13.925 13.925 0 0 0 13.992 0 1 1 0 0 0 .365-1.365l-3.5-6.058a1 1 0 0 0 -.6-.465zm-8.365 6.622 2.508-4.349a7.05 7.05 0 0 0 5.194 0l2.511 4.352a12.086 12.086 0 0 1 -10.213-.003z"/><path d="m34 44a14.046 14.046 0 0 0 -7-12.115 1 1 0 0 0 -1.367.365l-3.5 6.058a1 1 0 0 0 .365 1.365 5.018 5.018 0 0 1 2.502 4.327 1 1 0 0 0 1 1h7a1 1 0 0 0 1-1zm-7.072-1a7.043 7.043 0 0 0 -2.6-4.495l2.512-4.352a12.057 12.057 0 0 1 5.118 8.847z"/></g></g></g></svg>