<?xml version="1.0" encoding="utf-8"?>
<!-- Generator: Adobe Illustrator 24.1.1, SVG Export Plug-In . SVG Version: 6.00 Build 0)  -->
<svg version="1.1" id="Layer_1" xmlns="http://www.w3.org/2000/svg" xmlns:xlink="http://www.w3.org/1999/xlink" x="0px" y="0px"
	 viewBox="0 0 512 512" style="enable-background:new 0 0 512 512;" xml:space="preserve">
<style type="text/css">
	.st0{fill:#F9E109;}
</style>
<g>
	<g>
		<path class="st0" d="M421.6,60.8C313.8-30.7,152.3-17.4,60.8,90.4s-78.2,269.4,29.6,360.8c107.8,91.5,269.4,78.2,360.8-29.6
			C542.7,313.8,529.4,152.3,421.6,60.8z M256,45.2c38.4,0,74.4,10.3,105.4,28.2l-74.5,129.1c-19.3-11.1-42.9-10.9-61.8,0L150.6,73.4
			C181.6,55.5,217.6,45.2,256,45.2z M150.6,438.6c-31-17.9-57.9-43.9-77.1-77.2C54.2,328.1,45.1,291.8,45.2,256h149.1
			c0,22.3,12,42.6,30.9,53.5L150.6,438.6z M233.3,282.8c-14.8-12.5-16.6-34.7-4.1-49.5s34.7-16.6,49.5-4.1
			c14.8,12.5,16.6,34.7,4.1,49.5C270.2,293.5,248.1,295.3,233.3,282.8z M438.6,361.4c-19.2,33.3-46.1,59.3-77.1,77.2L287,309.5
			c19.3-11.1,30.9-31.7,30.9-53.5h149C466.9,291.8,457.8,328.1,438.6,361.4z"/>
	</g>
</g>
</svg>
