<?xml version="1.0" encoding="utf-8"?>
<!-- Generator: Adobe Illustrator 24.1.1, SVG Export Plug-In . SVG Version: 6.00 Build 0)  -->
<svg version="1.1"
	 id="svg10" xmlns:cc="http://creativecommons.org/ns#" xmlns:dc="http://purl.org/dc/elements/1.1/" xmlns:rdf="http://www.w3.org/1999/02/22-rdf-syntax-ns#" xmlns:svg="http://www.w3.org/2000/svg"
	 xmlns="http://www.w3.org/2000/svg" xmlns:xlink="http://www.w3.org/1999/xlink" x="0px" y="0px" viewBox="0 0 1200 600"
	 style="enable-background:new 0 0 1200 600;" xml:space="preserve">
<style type="text/css">
	.st0{fill:#CC0000;}
	.st1{fill:#FFD700;}
</style>
<path id="path2" class="st0" d="M0,0h1200v600H0V0z"/>
<path id="path11728" class="st1" d="M188.3,15.6l-8.7,28.1h-28L174.3,61l-8.7,28.1l22.7-17.3L211,89.1L202.4,61L225,43.7h-28
	L188.3,15.6z M188.3,30.2l5.5,18h17.9l-14.5,11.1l5.5,18l-14.5-11.1l-14.5,11.1l5.5-18l-14.5-11.1h17.9L188.3,30.2z"/>
<g id="g2900" transform="matrix(0.98931879,0,0,0.98673811,3.8297658,3.7659398)">
	<path id="rect4165-6" class="st1" d="M123.9,161l19.4,20.6l18.3-19.1c27.8,31.4,57.1,61.7,84.7,93.3c4.2,4.4,10.9,4.4,15.1,0.1
		c4.2-4.4,4.2-11.5,0.1-15.9c-29.7-29.5-59.4-59.2-89.1-88.7l24.7-25.8l-34.3-5L123.9,161z"/>
	<path id="path4179-3" class="st1" d="M186.5,94.4c16,9.5,28.1,23.1,35.2,37.3c7.2,14.4,10.4,29.4,10.5,41.4
		c0.1,24.6-19,44.6-42.4,44.6c-12.5,0-23.7-5.7-31.5-14.7l-4.3,3.8c-0.7-0.3-1.5-0.4-2.3-0.4c-1.9,0-3.7,0.9-4.9,2.4
		c-3.1,0.4-5.6,2.6-6.6,5.7c-3.2,6.8-8.9,12.2-15.7,14.6c-0.1,0-0.1,0.1-0.2,0.1c-3.2,1.2-6.3,3.4-9,6.3c-5.3,5.7-8,12.9-6.5,18
		c-0.1,0.4-0.2,0.9-0.2,1.4c0,2.4,1.8,4.3,4,4.3c0.6,0,1.1-0.1,1.6-0.4c4.8,1.1,11.4-1.7,16.5-7.1c2.9-3.1,5.1-6.7,6.2-10.3
		c2.4-7.2,7.5-13,14-16.3c0.2-0.1,0.3-0.2,0.4-0.2c2.2-1.1,3.8-3.2,4.3-5.6c10,12.4,25,20.3,41.7,20.7c30.7,0.8,53.7-23,54.7-57.2
		c0.5-17.2-5.8-39.4-20.2-57.6C221,111,204.8,99.5,186.5,94.4L186.5,94.4z"/>
</g>
</svg>
